<?xml version="1.0" encoding="utf-8"?>
<!-- Generator: Adobe Illustrator 26.0.2, SVG Export Plug-In . SVG Version: 6.00 Build 0)  -->
<svg version="1.1" id="Camada_1" xmlns="http://www.w3.org/2000/svg" xmlns:xlink="http://www.w3.org/1999/xlink" x="0px" y="0px"
	 width="16px" height="16px" viewBox="0 0 16 16" style="enable-background:new 0 0 16 16;" xml:space="preserve">
<style type="text/css">
	.st0{fill:#FFFFFF;}
</style>
<path class="st0" d="M0.7,4.2L2,5l7-4.1L7.7,0.1L0.7,4.2z"/>
<path class="st0" d="M0.5,0"/>
<path class="st0" d="M0.7,4.2v8.1L2,13.1L2,5L0.7,4.2L0.7,4.2z"/>
<path class="st0" d="M0.5,0"/>
<path d="M2,5l7-4.1v8.1l-7,4.1L2,5L2,5z"/>
<path d="M0.5,0"/>
<path class="st0" d="M3.1,5.6l1.4,0.8l7-4.1l-1.4-0.8L3.1,5.6L3.1,5.6z"/>
<path class="st0" d="M0.5,0"/>
<path class="st0" d="M3.1,5.6v8.1l1.4,0.8l0-8.1L3.1,5.6L3.1,5.6z"/>
<path class="st0" d="M0.5,0"/>
<path d="M4.4,6.4l7-4.1v8.1l-7,4.1C4.5,14.5,4.4,6.4,4.4,6.4z"/>
<path d="M0.5,0"/>
<path class="st0" d="M4.4,7.7L7,16l1.5-0.5L5.8,7.3C5.8,7.3,4.4,7.7,4.4,7.7z"/>
<path class="st0" d="M0.5,0"/>
<path class="st0" d="M11.5,4l2.6,8.3l1.5-0.5l-2.7-8.3C12.8,3.5,11.5,4,11.5,4z"/>
<path class="st0" d="M0.5,0"/>
<path class="st0" d="M5.8,7.3l7-3.8l2.7,8.3l-7,3.8L5.8,7.3L5.8,7.3z"/>
<path class="st0" d="M0.5,0"/>
<path class="st0" d="M5.8,7.3L4.4,7.7l7-3.8l1.4-0.5L5.8,7.3L5.8,7.3z"/>
<path class="st0" d="M0.5,0"/>
<path d="M9.8,6.6L9.3,6.8L8.9,7.1l-0.4,5.7l0.9,0.4l0.7-4.6l3.7,2.3l0.3-1C14.1,9.9,9.8,6.6,9.8,6.6z"/>
<path d="M0.5,0"/>
</svg>
