<?xml version="1.0" encoding="utf-8"?>
<!-- Generator: Adobe Illustrator 26.0.2, SVG Export Plug-In . SVG Version: 6.00 Build 0)  -->
<svg version="1.1" id="Camada_1" xmlns="http://www.w3.org/2000/svg" xmlns:xlink="http://www.w3.org/1999/xlink" x="0px" y="0px"
	 width="16px" height="16px" viewBox="0 0 16 16" style="enable-background:new 0 0 16 16;" xml:space="preserve">
<style type="text/css">
	.st0{fill:#A5A5A5;}
</style>
<path class="st0" d="M15.5,4.3L16,3l0-0.1l-5,1.3c0.5-0.8,0.3-1.4,0.3-1.4s-1.6,1-2.8,1C7.3,3.8,7,3.5,5.1,4.1
	C3.3,4.7,2.7,6.5,2.2,6.9C1.7,7.3,0,8.5,0,8.5l0,0l1.5-0.5c0,0-0.4,0.4-1.3,1.6c0,0,0,0,0,0l0,0c0,0,0.7,1.1,1.4,0.9
	c0.1,0,0.1-0.1,0.2-0.1c0.3,0.2,0.6,0.3,1,0.4c0,0-0.3-0.3-0.5-0.7C2.4,10,2.5,10,2.6,10l0,0l0.6,0.2L3,9.6c0,0,0,0,0,0l0.6,0.2
	L3.5,9.4c0.1,0,0.1-0.1,0.2-0.1L4.3,7l2.4-1.7L6.6,5.8C6.1,7.1,5.2,7.3,5.2,7.3L4.8,7.5C4.5,7.8,4.4,7.9,4.3,9.1C4.5,9,4.7,9,4.9,9
	c1,0.3,1.4,1.5,1.1,1.9C6,11,5.8,11.2,5.6,11.3H5.2l0,0.3c0,0,0,0,0,0H4.7l0,0.3c0,0-0.1,0.1-0.1,0.1c-0.4,0-0.9-0.3-0.9-0.3
	c0,0.3,0.3,0.8,0.3,0.8s0,0,0,0c0,0,0,0,0,0s1.1,0.7,1.8,0.5c0.6-0.2,2.2-1.5,3.5-2.1l4.1-1.1l0.5-1.4l-3.1,0.8V8.1l3.7-1L15,5.7
	l-4.2,1.1V5.6L15.5,4.3z"/>
</svg>
